<svg width="119" height="119" viewBox="0 0 119 119" fill="none" xmlns="http://www.w3.org/2000/svg">
<path d="M0 21C0 9.40202 9.40202 0 21 0H98C109.598 0 119 9.40202 119 21V98C119 109.598 109.598 119 98 119H21C9.40202 119 0 109.598 0 98V21Z" fill="#4F4F4F"/>
<path d="M103 59.5C102.996 55.4185 101.905 51.4216 99.8519 47.9719C97.7991 44.5221 94.8689 41.7606 91.4004 40.0068V39.4714C91.397 35.5012 90.1909 31.6376 87.9606 28.4522C85.7303 25.2669 82.5941 22.9291 79.0162 21.7847C75.4384 20.6403 71.6088 20.7501 68.0942 22.0979C64.5797 23.4457 61.5668 25.9598 59.5014 29.2684C57.4359 25.9598 54.4231 23.4457 50.9085 22.0979C47.3939 20.7501 43.5644 20.6403 39.9865 21.7847C36.4086 22.9291 33.2725 25.2669 31.0421 28.4522C28.8118 31.6376 27.6057 35.5012 27.6024 39.4714V40.0068C24.1309 41.7558 21.1979 44.5156 19.1441 47.9655C17.0903 51.4155 16 55.4139 16 59.4961C16 63.5784 17.0903 67.5768 19.1441 71.0268C21.1979 74.4767 24.1309 77.2365 27.6024 78.9855V79.5286C27.6057 83.4988 28.8118 87.3624 31.0421 90.5478C33.2725 93.7331 36.4086 96.0709 39.9865 97.2153C43.5644 98.3597 47.3939 98.2499 50.9085 96.9021C54.4231 95.5543 57.4359 93.0402 59.5014 89.7316C61.5668 93.0402 64.5797 95.5543 68.0942 96.9021C71.6088 98.2499 75.4384 98.3597 79.0162 97.2153C82.5941 96.0709 85.7303 93.7331 87.9606 90.5478C90.1909 87.3624 91.397 83.4988 91.4004 79.5286V78.9855C94.8683 77.233 97.7982 74.4729 99.8511 71.0244C101.904 67.576 102.996 63.5804 103 59.5ZM45.0018 91.8539C42.1416 91.8535 39.3824 90.7302 37.2541 88.6998C35.1258 86.6694 33.7785 83.8751 33.471 80.8536C34.4088 80.9957 35.3548 81.0678 36.3021 81.0693H39.202C39.9711 81.0693 40.7087 80.7446 41.2525 80.1668C41.7964 79.5889 42.1019 78.8052 42.1019 77.9879C42.1019 77.1707 41.7964 76.387 41.2525 75.8091C40.7087 75.2313 39.9711 74.9066 39.202 74.9066H36.3021C32.8786 74.9109 29.5641 73.6278 26.9454 71.2847C24.3268 68.9415 22.5729 65.6894 21.9942 62.1041C21.4156 58.5188 22.0495 54.8315 23.7838 51.6952C25.5181 48.5588 28.2409 46.1757 31.4701 44.9677C32.0351 44.7551 32.5243 44.3618 32.8703 43.8417C33.2163 43.3216 33.4021 42.7004 33.4022 42.0636V39.4714C33.4022 36.2025 34.6243 33.0675 36.7996 30.7561C38.975 28.4447 41.9254 27.1461 45.0018 27.1461C48.0782 27.1461 51.0286 28.4447 53.204 30.7561C55.3793 33.0675 56.6014 36.2025 56.6014 39.4714V65.7628C53.417 62.7195 49.2847 61.0373 45.0018 61.0407C44.2327 61.0407 43.4951 61.3653 42.9513 61.9432C42.4074 62.521 42.1019 63.3048 42.1019 64.122C42.1019 64.9392 42.4074 65.723 42.9513 66.3008C43.4951 66.8787 44.2327 67.2033 45.0018 67.2033C48.0782 67.2033 51.0286 68.5019 53.204 70.8133C55.3793 73.1247 56.6014 76.2597 56.6014 79.5286C56.6014 82.7975 55.3793 85.9325 53.204 88.2439C51.0286 90.5553 48.0782 91.8539 45.0018 91.8539ZM82.7006 74.9066H79.8007C79.0316 74.9066 78.294 75.2313 77.7502 75.8091C77.2063 76.387 76.9008 77.1707 76.9008 77.9879C76.9008 78.8052 77.2063 79.5889 77.7502 80.1668C78.294 80.7446 79.0316 81.0693 79.8007 81.0693H82.7006C83.6479 81.0678 84.5939 80.9957 85.5317 80.8536C85.2908 83.2211 84.4096 85.4637 82.9946 87.3104C81.5797 89.157 79.6916 90.5286 77.5586 91.2593C75.4256 91.99 73.1391 92.0485 70.9755 91.4278C68.8119 90.807 66.8639 89.5336 65.3669 87.7615C63.8699 85.9894 62.8881 83.7944 62.5402 81.442C62.1923 79.0896 62.4932 76.6804 63.4065 74.5058C64.3198 72.3313 65.8063 70.4843 67.6865 69.1884C69.5666 67.8924 71.7598 67.203 74.0009 67.2033C74.77 67.2033 75.5076 66.8787 76.0515 66.3008C76.5953 65.723 76.9008 64.9392 76.9008 64.122C76.9008 63.3048 76.5953 62.521 76.0515 61.9432C75.5076 61.3653 74.77 61.0407 74.0009 61.0407C69.718 61.0373 65.5857 62.7195 62.4013 65.7628V39.4714C62.4013 36.2025 63.6234 33.0675 65.7987 30.7561C67.9741 28.4447 70.9245 27.1461 74.0009 27.1461C77.0773 27.1461 80.0277 28.4447 82.2031 30.7561C84.3784 33.0675 85.6005 36.2025 85.6005 39.4714V42.0636C85.6006 42.7004 85.7865 43.3216 86.1325 43.8417C86.4784 44.3618 86.9676 44.7551 87.5326 44.9677C90.7618 46.1757 93.4846 48.5588 95.2189 51.6952C96.9532 54.8315 97.5872 58.5188 97.0085 62.1041C96.4299 65.6894 94.6759 68.9415 92.0573 71.2847C89.4386 73.6278 86.1241 74.9109 82.7006 74.9066ZM88.5005 54.878C88.5005 55.6952 88.1949 56.479 87.6511 57.0568C87.1073 57.6347 86.3696 57.9593 85.6005 57.9593H84.1506C80.6896 57.9593 77.3704 56.4985 74.9231 53.8981C72.4759 51.2977 71.101 47.7709 71.101 44.0934V42.5527C71.101 41.7355 71.4065 40.9518 71.9504 40.3739C72.4942 39.796 73.2318 39.4714 74.0009 39.4714C74.77 39.4714 75.5076 39.796 76.0515 40.3739C76.5953 40.9518 76.9008 41.7355 76.9008 42.5527V44.0934C76.9008 46.1364 77.6646 48.0958 79.0242 49.5404C80.3838 50.9851 82.2278 51.7967 84.1506 51.7967H85.6005C86.3696 51.7967 87.1073 52.1213 87.6511 52.6992C88.1949 53.277 88.5005 54.0608 88.5005 54.878ZM34.8521 57.9593H33.4022C32.6331 57.9593 31.8955 57.6347 31.3516 57.0568C30.8078 56.479 30.5023 55.6952 30.5023 54.878C30.5023 54.0608 30.8078 53.277 31.3516 52.6992C31.8955 52.1213 32.6331 51.7967 33.4022 51.7967H34.8521C36.7749 51.7967 38.6189 50.9851 39.9785 49.5404C41.3381 48.0958 42.1019 46.1364 42.1019 44.0934V42.5527C42.1019 41.7355 42.4074 40.9518 42.9513 40.3739C43.4951 39.796 44.2327 39.4714 45.0018 39.4714C45.7709 39.4714 46.5085 39.796 47.0524 40.3739C47.5962 40.9518 47.9017 41.7355 47.9017 42.5527V44.0934C47.9017 47.7709 46.5269 51.2977 44.0796 53.8981C41.6323 56.4985 38.3131 57.9593 34.8521 57.9593Z" fill="#DADADA"/>
</svg>
