<svg width="74" height="74" viewBox="0 0 74 74" fill="none" xmlns="http://www.w3.org/2000/svg">
<path d="M64 0H10C4.47715 0 0 4.47715 0 10V64C0 69.5229 4.47715 74 10 74H64C69.5229 74 74 69.5229 74 64V10C74 4.47715 69.5229 0 64 0Z" fill="#E3D8F5"/>
<mask id="mask0_39_2" style="mask-type:luminance" maskUnits="userSpaceOnUse" x="10" y="10" width="54" height="54">
<path d="M63 11H11V63H63V11Z" fill="white" stroke="#7737DE" stroke-width="0.6"/>
<path d="M55.349 12H37.009H36.999H36.989H18.65C14.99 12 12 14.99 12 18.65V36.97V36.99V37.01V55.34C12 59.02 14.99 62 18.65 62H55.35C59.02 62 62 59.02 62 55.35V18.65C62 14.99 59.02 12 55.35 12H55.349ZM59.999 18.65V36H53.999C54.069 35.67 54.109 35.34 54.109 35C54.109 32.19 51.819 29.9 48.999 29.9C46.189 29.9 43.899 32.19 43.899 35C43.899 35.34 43.939 35.67 44.009 36H37.999V28.59C37.999 28.57 37.989 28.56 37.989 28.54C37.989 28.47 37.969 28.41 37.949 28.34C37.929 28.28 37.919 28.21 37.889 28.15C37.879 28.13 37.879 28.11 37.869 28.1C37.849 28.06 37.809 28.04 37.789 28C37.749 27.94 37.709 27.89 37.659 27.84C37.609 27.8 37.559 27.77 37.509 27.74C37.449 27.71 37.399 27.68 37.339 27.65C37.279 27.63 37.209 27.62 37.139 27.61C37.099 27.6 37.059 27.58 37.009 27.58C36.989 27.58 36.979 27.59 36.959 27.59C36.889 27.59 36.829 27.61 36.769 27.63C36.699 27.65 36.639 27.6599 36.579 27.6899C36.559 27.6999 36.549 27.7 36.529 27.71C36.059 27.97 35.559 28.1 35.019 28.1C33.309 28.1 31.919 26.7 31.919 24.99C31.919 23.28 33.309 21.89 35.019 21.89C35.559 21.89 36.069 22.02 36.529 22.28C36.549 22.29 36.559 22.29 36.579 22.3C36.639 22.33 36.709 22.34 36.769 22.36C36.829 22.38 36.899 22.39 36.959 22.4C36.979 22.4 36.999 22.41 37.019 22.41C37.069 22.41 37.109 22.39 37.149 22.38C37.219 22.37 37.279 22.36 37.339 22.34C37.399 22.32 37.459 22.29 37.519 22.25C37.569 22.22 37.619 22.19 37.669 22.15C37.718 22.1 37.759 22.05 37.809 21.99C37.839 21.96 37.869 21.93 37.889 21.89C37.899 21.87 37.899 21.86 37.909 21.84C37.939 21.78 37.949 21.72 37.969 21.65C37.989 21.58 38.009 21.52 38.009 21.45C38.009 21.43 38.019 21.42 38.019 21.4V14H55.368C57.919 14 59.999 16.09 59.999 18.65ZM18.65 14H35.999V20.01C35.669 19.94 35.339 19.9 34.999 19.9C32.189 19.9 29.899 22.19 29.899 25C29.899 27.82 32.189 30.11 34.999 30.11C35.339 30.11 35.669 30.07 35.999 30V36H28.589C28.569 36 28.559 36.01 28.54 36.01C28.47 36.01 28.409 36.03 28.35 36.05C28.28 36.07 28.219 36.08 28.16 36.11C28.139 36.12 28.129 36.12 28.11 36.13C28.07 36.15 28.05 36.19 28.01 36.21C27.95 36.25 27.9 36.29 27.85 36.34C27.81 36.39 27.78 36.44 27.74 36.5C27.71 36.56 27.68 36.61 27.65 36.67C27.63 36.74 27.62 36.8 27.61 36.87C27.6 36.91 27.579 36.95 27.579 36.99C27.579 37.01 27.589 37.02 27.589 37.04C27.589 37.11 27.61 37.17 27.63 37.24C27.65 37.3 27.66 37.3701 27.69 37.4301C27.7 37.4501 27.7 37.47 27.71 37.48C27.97 37.94 28.1 38.46 28.1 38.99C28.1 40.7 26.7 42.1 24.99 42.1C23.28 42.1 21.89 40.7 21.89 38.99C21.89 38.46 22.03 37.94 22.28 37.48C22.29 37.46 22.29 37.4501 22.3 37.4301C22.33 37.3701 22.34 37.31 22.36 37.24C22.38 37.17 22.4 37.11 22.4 37.04C22.4 37.02 22.41 37.01 22.41 36.99C22.41 36.95 22.39 36.91 22.38 36.87C22.37 36.8 22.36 36.73 22.34 36.67C22.319 36.61 22.29 36.56 22.25 36.5C22.219 36.45 22.19 36.39 22.139 36.34C22.09 36.29 22.039 36.25 21.98 36.21C21.939 36.18 21.92 36.15 21.88 36.13C21.859 36.12 21.849 36.12 21.83 36.11C21.77 36.08 21.71 36.07 21.64 36.05C21.57 36.03 21.51 36.01 21.45 36.01C21.43 36.01 21.42 36 21.4 36H13.999V18.65C13.999 16.09 16.089 14 18.649 14H18.65ZM14 55.35V38H20C19.93 38.33 19.89 38.66 19.89 39C19.89 41.82 22.18 44.11 24.99 44.11C27.81 44.11 30.099 41.82 30.099 39C30.099 38.66 30.059 38.33 29.989 38H35.989V45.42C35.989 45.44 35.999 45.45 35.999 45.47C35.999 45.54 36.019 45.6 36.039 45.67C36.06 45.73 36.07 45.8 36.099 45.86C36.109 45.88 36.109 45.9 36.119 45.91C36.139 45.95 36.179 45.97 36.199 46.01C36.239 46.07 36.279 46.12 36.34 46.17C36.389 46.21 36.44 46.24 36.489 46.27C36.549 46.3 36.599 46.34 36.659 46.36C36.719 46.38 36.789 46.39 36.859 46.4C36.899 46.41 36.939 46.4301 36.989 46.4301C37.01 46.4301 37.03 46.42 37.039 46.42C37.109 46.42 37.169 46.4 37.229 46.38C37.299 46.36 37.359 46.3499 37.419 46.3199C37.439 46.3099 37.459 46.31 37.469 46.3C37.929 46.04 38.449 45.91 38.979 45.91C40.689 45.91 42.089 47.3 42.089 49.01C42.089 50.72 40.689 52.12 38.979 52.12C38.449 52.12 37.929 51.98 37.469 51.73C37.449 51.72 37.439 51.72 37.419 51.71C37.359 51.68 37.299 51.67 37.229 51.65C37.159 51.63 37.099 51.61 37.029 51.61C37.009 51.61 36.999 51.6 36.979 51.6C36.939 51.6 36.899 51.62 36.849 51.63C36.779 51.64 36.709 51.65 36.649 51.67C36.589 51.69 36.539 51.72 36.479 51.76C36.429 51.79 36.369 51.82 36.319 51.87C36.27 51.92 36.229 51.97 36.189 52.03C36.159 52.07 36.129 52.09 36.109 52.13C36.099 52.15 36.099 52.1601 36.089 52.1801C36.059 52.2401 36.049 52.3 36.029 52.37C36.009 52.44 35.989 52.4999 35.989 52.5699C35.989 52.5899 35.979 52.6 35.979 52.62L35.98 60H18.649C16.089 60 13.999 57.91 13.999 55.35H14ZM55.349 60H37.999V54C38.329 54.07 38.659 54.11 38.999 54.11C41.819 54.11 44.109 51.82 44.109 49C44.109 46.19 41.819 43.9 38.999 43.9C38.659 43.9 38.329 43.94 37.999 44.01V38H45.419C45.439 38 45.46 37.99 45.469 37.99C45.529 37.99 45.599 37.97 45.659 37.95C45.729 37.93 45.789 37.92 45.849 37.89C45.869 37.88 45.879 37.88 45.899 37.87C45.939 37.85 45.959 37.81 45.999 37.79C46.059 37.75 46.109 37.71 46.159 37.66C46.199 37.61 46.229 37.56 46.269 37.5C46.299 37.44 46.329 37.39 46.359 37.33C46.379 37.26 46.389 37.2 46.399 37.13C46.409 37.09 46.429 37.05 46.429 37.01C46.429 36.99 46.419 36.98 46.419 36.96C46.419 36.89 46.399 36.83 46.379 36.76C46.359 36.7 46.349 36.6299 46.319 36.5699C46.309 36.5499 46.309 36.53 46.299 36.52C46.039 36.06 45.909 35.55 45.909 35.01C45.909 33.3 47.299 31.91 49.009 31.91C50.719 31.91 52.119 33.3 52.119 35.01C52.119 35.55 51.989 36.06 51.729 36.52C51.719 36.54 51.719 36.5499 51.709 36.5699C51.679 36.6299 51.669 36.69 51.649 36.76C51.629 36.83 51.609 36.89 51.609 36.96C51.609 36.98 51.599 36.99 51.599 37.01C51.599 37.05 51.619 37.09 51.629 37.13C51.639 37.2 51.649 37.27 51.669 37.33C51.689 37.39 51.719 37.44 51.759 37.5C51.789 37.55 51.819 37.61 51.869 37.66C51.919 37.71 51.969 37.75 52.029 37.79C52.069 37.82 52.089 37.85 52.129 37.87C52.149 37.88 52.169 37.89 52.199 37.9C52.229 37.91 52.249 37.9201 52.279 37.9301C52.389 37.9701 52.509 38 52.619 38H59.999V55.35C59.999 57.91 57.919 60 55.349 60Z" stroke="#7737DE" stroke-width="0.6"/>
</mask>
<g mask="url(#mask0_39_2)">
<path d="M55.349 12H37.009H36.999H36.989H18.65C14.99 12 12 14.99 12 18.65V36.97V36.99V37.01V55.34C12 59.02 14.99 62 18.65 62H55.35C59.02 62 62 59.02 62 55.35V18.65C62 14.99 59.02 12 55.35 12H55.349ZM59.999 18.65V36H53.999C54.069 35.67 54.109 35.34 54.109 35C54.109 32.19 51.819 29.9 48.999 29.9C46.189 29.9 43.899 32.19 43.899 35C43.899 35.34 43.939 35.67 44.009 36H37.999V28.59C37.999 28.57 37.989 28.56 37.989 28.54C37.989 28.47 37.969 28.41 37.949 28.34C37.929 28.28 37.919 28.21 37.889 28.15C37.879 28.13 37.879 28.11 37.869 28.1C37.849 28.06 37.809 28.04 37.789 28C37.749 27.94 37.709 27.89 37.659 27.84C37.609 27.8 37.559 27.77 37.509 27.74C37.449 27.71 37.399 27.68 37.339 27.65C37.279 27.63 37.209 27.62 37.139 27.61C37.099 27.6 37.059 27.58 37.009 27.58C36.989 27.58 36.979 27.59 36.959 27.59C36.889 27.59 36.829 27.61 36.769 27.63C36.699 27.65 36.639 27.6599 36.579 27.6899C36.559 27.6999 36.549 27.7 36.529 27.71C36.059 27.97 35.559 28.1 35.019 28.1C33.309 28.1 31.919 26.7 31.919 24.99C31.919 23.28 33.309 21.89 35.019 21.89C35.559 21.89 36.069 22.02 36.529 22.28C36.549 22.29 36.559 22.29 36.579 22.3C36.639 22.33 36.709 22.34 36.769 22.36C36.829 22.38 36.899 22.39 36.959 22.4C36.979 22.4 36.999 22.41 37.019 22.41C37.069 22.41 37.109 22.39 37.149 22.38C37.219 22.37 37.279 22.36 37.339 22.34C37.399 22.32 37.459 22.29 37.519 22.25C37.569 22.22 37.619 22.19 37.669 22.15C37.718 22.1 37.759 22.05 37.809 21.99C37.839 21.96 37.869 21.93 37.889 21.89C37.899 21.87 37.899 21.86 37.909 21.84C37.939 21.78 37.949 21.72 37.969 21.65C37.989 21.58 38.009 21.52 38.009 21.45C38.009 21.43 38.019 21.42 38.019 21.4V14H55.368C57.919 14 59.999 16.09 59.999 18.65ZM18.65 14H35.999V20.01C35.669 19.94 35.339 19.9 34.999 19.9C32.189 19.9 29.899 22.19 29.899 25C29.899 27.82 32.189 30.11 34.999 30.11C35.339 30.11 35.669 30.07 35.999 30V36H28.589C28.569 36 28.559 36.01 28.54 36.01C28.47 36.01 28.409 36.03 28.35 36.05C28.28 36.07 28.219 36.08 28.16 36.11C28.139 36.12 28.129 36.12 28.11 36.13C28.07 36.15 28.05 36.19 28.01 36.21C27.95 36.25 27.9 36.29 27.85 36.34C27.81 36.39 27.78 36.44 27.74 36.5C27.71 36.56 27.68 36.61 27.65 36.67C27.63 36.74 27.62 36.8 27.61 36.87C27.6 36.91 27.579 36.95 27.579 36.99C27.579 37.01 27.589 37.02 27.589 37.04C27.589 37.11 27.61 37.17 27.63 37.24C27.65 37.3 27.66 37.3701 27.69 37.4301C27.7 37.4501 27.7 37.47 27.71 37.48C27.97 37.94 28.1 38.46 28.1 38.99C28.1 40.7 26.7 42.1 24.99 42.1C23.28 42.1 21.89 40.7 21.89 38.99C21.89 38.46 22.03 37.94 22.28 37.48C22.29 37.46 22.29 37.4501 22.3 37.4301C22.33 37.3701 22.34 37.31 22.36 37.24C22.38 37.17 22.4 37.11 22.4 37.04C22.4 37.02 22.41 37.01 22.41 36.99C22.41 36.95 22.39 36.91 22.38 36.87C22.37 36.8 22.36 36.73 22.34 36.67C22.319 36.61 22.29 36.56 22.25 36.5C22.219 36.45 22.19 36.39 22.139 36.34C22.09 36.29 22.039 36.25 21.98 36.21C21.939 36.18 21.92 36.15 21.88 36.13C21.859 36.12 21.849 36.12 21.83 36.11C21.77 36.08 21.71 36.07 21.64 36.05C21.57 36.03 21.51 36.01 21.45 36.01C21.43 36.01 21.42 36 21.4 36H13.999V18.65C13.999 16.09 16.089 14 18.649 14H18.65ZM14 55.35V38H20C19.93 38.33 19.89 38.66 19.89 39C19.89 41.82 22.18 44.11 24.99 44.11C27.81 44.11 30.099 41.82 30.099 39C30.099 38.66 30.059 38.33 29.989 38H35.989V45.42C35.989 45.44 35.999 45.45 35.999 45.47C35.999 45.54 36.019 45.6 36.039 45.67C36.06 45.73 36.07 45.8 36.099 45.86C36.109 45.88 36.109 45.9 36.119 45.91C36.139 45.95 36.179 45.97 36.199 46.01C36.239 46.07 36.279 46.12 36.34 46.17C36.389 46.21 36.44 46.24 36.489 46.27C36.549 46.3 36.599 46.34 36.659 46.36C36.719 46.38 36.789 46.39 36.859 46.4C36.899 46.41 36.939 46.4301 36.989 46.4301C37.01 46.4301 37.03 46.42 37.039 46.42C37.109 46.42 37.169 46.4 37.229 46.38C37.299 46.36 37.359 46.3499 37.419 46.3199C37.439 46.3099 37.459 46.31 37.469 46.3C37.929 46.04 38.449 45.91 38.979 45.91C40.689 45.91 42.089 47.3 42.089 49.01C42.089 50.72 40.689 52.12 38.979 52.12C38.449 52.12 37.929 51.98 37.469 51.73C37.449 51.72 37.439 51.72 37.419 51.71C37.359 51.68 37.299 51.67 37.229 51.65C37.159 51.63 37.099 51.61 37.029 51.61C37.009 51.61 36.999 51.6 36.979 51.6C36.939 51.6 36.899 51.62 36.849 51.63C36.779 51.64 36.709 51.65 36.649 51.67C36.589 51.69 36.539 51.72 36.479 51.76C36.429 51.79 36.369 51.82 36.319 51.87C36.27 51.92 36.229 51.97 36.189 52.03C36.159 52.07 36.129 52.09 36.109 52.13C36.099 52.15 36.099 52.1601 36.089 52.1801C36.059 52.2401 36.049 52.3 36.029 52.37C36.009 52.44 35.989 52.4999 35.989 52.5699C35.989 52.5899 35.979 52.6 35.979 52.62L35.98 60H18.649C16.089 60 13.999 57.91 13.999 55.35H14ZM55.349 60H37.999V54C38.329 54.07 38.659 54.11 38.999 54.11C41.819 54.11 44.109 51.82 44.109 49C44.109 46.19 41.819 43.9 38.999 43.9C38.659 43.9 38.329 43.94 37.999 44.01V38H45.419C45.439 38 45.46 37.99 45.469 37.99C45.529 37.99 45.599 37.97 45.659 37.95C45.729 37.93 45.789 37.92 45.849 37.89C45.869 37.88 45.879 37.88 45.899 37.87C45.939 37.85 45.959 37.81 45.999 37.79C46.059 37.75 46.109 37.71 46.159 37.66C46.199 37.61 46.229 37.56 46.269 37.5C46.299 37.44 46.329 37.39 46.359 37.33C46.379 37.26 46.389 37.2 46.399 37.13C46.409 37.09 46.429 37.05 46.429 37.01C46.429 36.99 46.419 36.98 46.419 36.96C46.419 36.89 46.399 36.83 46.379 36.76C46.359 36.7 46.349 36.6299 46.319 36.5699C46.309 36.5499 46.309 36.53 46.299 36.52C46.039 36.06 45.909 35.55 45.909 35.01C45.909 33.3 47.299 31.91 49.009 31.91C50.719 31.91 52.119 33.3 52.119 35.01C52.119 35.55 51.989 36.06 51.729 36.52C51.719 36.54 51.719 36.5499 51.709 36.5699C51.679 36.6299 51.669 36.69 51.649 36.76C51.629 36.83 51.609 36.89 51.609 36.96C51.609 36.98 51.599 36.99 51.599 37.01C51.599 37.05 51.619 37.09 51.629 37.13C51.639 37.2 51.649 37.27 51.669 37.33C51.689 37.39 51.719 37.44 51.759 37.5C51.789 37.55 51.819 37.61 51.869 37.66C51.919 37.71 51.969 37.75 52.029 37.79C52.069 37.82 52.089 37.85 52.129 37.87C52.149 37.88 52.169 37.89 52.199 37.9C52.229 37.91 52.249 37.9201 52.279 37.9301C52.389 37.9701 52.509 38 52.619 38H59.999V55.35C59.999 57.91 57.919 60 55.349 60Z" stroke="#7737DE" stroke-width="0.6"/>
<path d="M55.349 12H37.009H36.999H36.989H18.65C14.99 12 12 14.99 12 18.65V36.97V36.99V37.01V55.34C12 59.02 14.99 62 18.65 62H55.35C59.02 62 62 59.02 62 55.35V18.65C62 14.99 59.02 12 55.35 12H55.349ZM59.999 18.65V36H53.999C54.069 35.67 54.109 35.34 54.109 35C54.109 32.19 51.819 29.9 48.999 29.9C46.189 29.9 43.899 32.19 43.899 35C43.899 35.34 43.939 35.67 44.009 36H37.999V28.59C37.999 28.57 37.989 28.56 37.989 28.54C37.989 28.47 37.969 28.41 37.949 28.34C37.929 28.28 37.919 28.21 37.889 28.15C37.879 28.13 37.879 28.11 37.869 28.1C37.849 28.06 37.809 28.04 37.789 28C37.749 27.94 37.709 27.89 37.659 27.84C37.609 27.8 37.559 27.77 37.509 27.74C37.449 27.71 37.399 27.68 37.339 27.65C37.279 27.63 37.209 27.62 37.139 27.61C37.099 27.6 37.059 27.58 37.009 27.58C36.989 27.58 36.979 27.59 36.959 27.59C36.889 27.59 36.829 27.61 36.769 27.63C36.699 27.65 36.639 27.6599 36.579 27.6899C36.559 27.6999 36.549 27.7 36.529 27.71C36.059 27.97 35.559 28.1 35.019 28.1C33.309 28.1 31.919 26.7 31.919 24.99C31.919 23.28 33.309 21.89 35.019 21.89C35.559 21.89 36.069 22.02 36.529 22.28C36.549 22.29 36.559 22.29 36.579 22.3C36.639 22.33 36.709 22.34 36.769 22.36C36.829 22.38 36.899 22.39 36.959 22.4C36.979 22.4 36.999 22.41 37.019 22.41C37.069 22.41 37.109 22.39 37.149 22.38C37.219 22.37 37.279 22.36 37.339 22.34C37.399 22.32 37.459 22.29 37.519 22.25C37.569 22.22 37.619 22.19 37.669 22.15C37.718 22.1 37.759 22.05 37.809 21.99C37.839 21.96 37.869 21.93 37.889 21.89C37.899 21.87 37.899 21.86 37.909 21.84C37.939 21.78 37.949 21.72 37.969 21.65C37.989 21.58 38.009 21.52 38.009 21.45C38.009 21.43 38.019 21.42 38.019 21.4V14H55.368C57.919 14 59.999 16.09 59.999 18.65ZM18.65 14H35.999V20.01C35.669 19.94 35.339 19.9 34.999 19.9C32.189 19.9 29.899 22.19 29.899 25C29.899 27.82 32.189 30.11 34.999 30.11C35.339 30.11 35.669 30.07 35.999 30V36H28.589C28.569 36 28.559 36.01 28.54 36.01C28.47 36.01 28.409 36.03 28.35 36.05C28.28 36.07 28.219 36.08 28.16 36.11C28.139 36.12 28.129 36.12 28.11 36.13C28.07 36.15 28.05 36.19 28.01 36.21C27.95 36.25 27.9 36.29 27.85 36.34C27.81 36.39 27.78 36.44 27.74 36.5C27.71 36.56 27.68 36.61 27.65 36.67C27.63 36.74 27.62 36.8 27.61 36.87C27.6 36.91 27.579 36.95 27.579 36.99C27.579 37.01 27.589 37.02 27.589 37.04C27.589 37.11 27.61 37.17 27.63 37.24C27.65 37.3 27.66 37.3701 27.69 37.4301C27.7 37.4501 27.7 37.47 27.71 37.48C27.97 37.94 28.1 38.46 28.1 38.99C28.1 40.7 26.7 42.1 24.99 42.1C23.28 42.1 21.89 40.7 21.89 38.99C21.89 38.46 22.03 37.94 22.28 37.48C22.29 37.46 22.29 37.4501 22.3 37.4301C22.33 37.3701 22.34 37.31 22.36 37.24C22.38 37.17 22.4 37.11 22.4 37.04C22.4 37.02 22.41 37.01 22.41 36.99C22.41 36.95 22.39 36.91 22.38 36.87C22.37 36.8 22.36 36.73 22.34 36.67C22.319 36.61 22.29 36.56 22.25 36.5C22.219 36.45 22.19 36.39 22.139 36.34C22.09 36.29 22.039 36.25 21.98 36.21C21.939 36.18 21.92 36.15 21.88 36.13C21.859 36.12 21.849 36.12 21.83 36.11C21.77 36.08 21.71 36.07 21.64 36.05C21.57 36.03 21.51 36.01 21.45 36.01C21.43 36.01 21.42 36 21.4 36H13.999V18.65C13.999 16.09 16.089 14 18.649 14H18.65ZM14 55.35V38H20C19.93 38.33 19.89 38.66 19.89 39C19.89 41.82 22.18 44.11 24.99 44.11C27.81 44.11 30.099 41.82 30.099 39C30.099 38.66 30.059 38.33 29.989 38H35.989V45.42C35.989 45.44 35.999 45.45 35.999 45.47C35.999 45.54 36.019 45.6 36.039 45.67C36.06 45.73 36.07 45.8 36.099 45.86C36.109 45.88 36.109 45.9 36.119 45.91C36.139 45.95 36.179 45.97 36.199 46.01C36.239 46.07 36.279 46.12 36.34 46.17C36.389 46.21 36.44 46.24 36.489 46.27C36.549 46.3 36.599 46.34 36.659 46.36C36.719 46.38 36.789 46.39 36.859 46.4C36.899 46.41 36.939 46.4301 36.989 46.4301C37.01 46.4301 37.03 46.42 37.039 46.42C37.109 46.42 37.169 46.4 37.229 46.38C37.299 46.36 37.359 46.3499 37.419 46.3199C37.439 46.3099 37.459 46.31 37.469 46.3C37.929 46.04 38.449 45.91 38.979 45.91C40.689 45.91 42.089 47.3 42.089 49.01C42.089 50.72 40.689 52.12 38.979 52.12C38.449 52.12 37.929 51.98 37.469 51.73C37.449 51.72 37.439 51.72 37.419 51.71C37.359 51.68 37.299 51.67 37.229 51.65C37.159 51.63 37.099 51.61 37.029 51.61C37.009 51.61 36.999 51.6 36.979 51.6C36.939 51.6 36.899 51.62 36.849 51.63C36.779 51.64 36.709 51.65 36.649 51.67C36.589 51.69 36.539 51.72 36.479 51.76C36.429 51.79 36.369 51.82 36.319 51.87C36.27 51.92 36.229 51.97 36.189 52.03C36.159 52.07 36.129 52.09 36.109 52.13C36.099 52.15 36.099 52.1601 36.089 52.1801C36.059 52.2401 36.049 52.3 36.029 52.37C36.009 52.44 35.989 52.4999 35.989 52.5699C35.989 52.5899 35.979 52.6 35.979 52.62L35.98 60H18.649C16.089 60 13.999 57.91 13.999 55.35H14ZM55.349 60H37.999V54C38.329 54.07 38.659 54.11 38.999 54.11C41.819 54.11 44.109 51.82 44.109 49C44.109 46.19 41.819 43.9 38.999 43.9C38.659 43.9 38.329 43.94 37.999 44.01V38H45.419C45.439 38 45.46 37.99 45.469 37.99C45.529 37.99 45.599 37.97 45.659 37.95C45.729 37.93 45.789 37.92 45.849 37.89C45.869 37.88 45.879 37.88 45.899 37.87C45.939 37.85 45.959 37.81 45.999 37.79C46.059 37.75 46.109 37.71 46.159 37.66C46.199 37.61 46.229 37.56 46.269 37.5C46.299 37.44 46.329 37.39 46.359 37.33C46.379 37.26 46.389 37.2 46.399 37.13C46.409 37.09 46.429 37.05 46.429 37.01C46.429 36.99 46.419 36.98 46.419 36.96C46.419 36.89 46.399 36.83 46.379 36.76C46.359 36.7 46.349 36.6299 46.319 36.5699C46.309 36.5499 46.309 36.53 46.299 36.52C46.039 36.06 45.909 35.55 45.909 35.01C45.909 33.3 47.299 31.91 49.009 31.91C50.719 31.91 52.119 33.3 52.119 35.01C52.119 35.55 51.989 36.06 51.729 36.52C51.719 36.54 51.719 36.5499 51.709 36.5699C51.679 36.6299 51.669 36.69 51.649 36.76C51.629 36.83 51.609 36.89 51.609 36.96C51.609 36.98 51.599 36.99 51.599 37.01C51.599 37.05 51.619 37.09 51.629 37.13C51.639 37.2 51.649 37.27 51.669 37.33C51.689 37.39 51.719 37.44 51.759 37.5C51.789 37.55 51.819 37.61 51.869 37.66C51.919 37.71 51.969 37.75 52.029 37.79C52.069 37.82 52.089 37.85 52.129 37.87C52.149 37.88 52.169 37.89 52.199 37.9C52.229 37.91 52.249 37.9201 52.279 37.9301C52.389 37.9701 52.509 38 52.619 38H59.999V55.35C59.999 57.91 57.919 60 55.349 60Z" fill="#8250D5"/>
</g>
</svg>
