<svg width="74" height="74" viewBox="0 0 74 74" fill="none" xmlns="http://www.w3.org/2000/svg">
<path d="M64 0H10C4.47715 0 0 4.47715 0 10V64C0 69.5229 4.47715 74 10 74H64C69.5229 74 74 69.5229 74 64V10C74 4.47715 69.5229 0 64 0Z" fill="#FFDBB6"/>
<path d="M19.2699 32.21C16.3699 32.4 14.0898 34.93 14.0898 38V46.42C14.0898 47.02 13.5999 47.52 12.9899 47.52C12.3899 47.52 11.8999 47.02 11.8999 46.42V38C11.8999 33.78 15.0699 30.29 19.1199 30.03M19.2699 32.21L33.8599 33.39C32.6599 35.11 30.3398 35.56 28.5798 34.4L24.0599 31.42H24.0499C24.0499 31.42 24.0499 31.42 24.0399 31.41L24.0299 31.4C24.0199 31.4 23.9999 31.39 23.9799 31.38C22.5399 30.39 20.8699 29.92 19.1199 30.03M19.2699 32.21C20.5399 32.12 21.7798 32.48 22.8198 33.23C22.8398 33.24 22.8699 33.26 22.8899 33.27C22.9099 33.28 22.9198 33.29 22.9398 33.3V33.3101L27.3699 36.23C30.1299 38.05 33.7599 37.34 35.6399 34.63L38.1998 30.96C38.3498 30.74 38.6299 30.69 38.8499 30.83C39.0599 30.97 39.1299 31.25 38.9999 31.47M19.2699 32.21L38.9999 31.47L19.2699 32.21ZM19.1199 30.03L19.1299 30.13L19.1199 30.03ZM19.1199 30.03L19.1299 30.13L19.1199 30.03ZM19.1299 30.13C15.1299 30.38 11.9999 33.83 11.9999 38V46.42C11.9999 46.97 12.4499 47.42 12.9899 47.42C13.5399 47.42 13.9899 46.97 13.9899 46.42V38C13.9899 34.88 16.3099 32.3 19.2599 32.11L19.1299 30.13ZM38.9999 31.47L36.3999 35.75C34.4399 38.99 30.3798 40.17 26.9598 38.49L26.7299 38.38C26.3899 38.22 25.9899 38.2399 25.6699 38.4399C25.3499 38.6299 25.1599 38.98 25.1599 39.37V46.42C25.1599 47.02 25.6499 47.52 26.2499 47.52C26.8499 47.52 27.3499 47.02 27.3499 46.42V41.01C31.4599 42.31 35.9699 40.69 38.2799 36.88L38.9999 31.47ZM60.9999 11.9H30.3599C29.7499 11.9 29.2599 12.4 29.2599 13.02V29.8101C29.2599 30.4301 29.7499 30.9301 30.3599 30.9301C30.9599 30.9301 31.4598 30.4301 31.4598 29.8101V14.13H59.9099V34.17H43.6499C43.0499 34.17 42.5599 34.68 42.5599 35.29C42.5599 35.9 43.0499 36.41 43.6499 36.41H60.9999C61.6099 36.41 62.0999 35.9 62.0999 35.29V13.02C62.0999 12.4 61.6099 11.9 60.9999 11.9ZM38.2799 36.88L40.8799 32.61C41.6199 31.38 41.2699 29.8 40.0599 29.01C38.8499 28.21 37.2499 28.52 36.4099 29.71L33.8599 33.39L38.2799 36.88ZM19.9899 16.0699C16.2999 16.0699 13.2899 18.91 13.2899 22.42C13.2899 25.92 16.2999 28.77 19.9899 28.77C23.6699 28.77 26.6799 25.92 26.6799 22.42C26.6799 18.91 23.6699 16.0699 19.9899 16.0699ZM19.9899 26.5699C17.5599 26.5699 15.5898 24.69 15.5898 22.41C15.5898 20.12 17.5599 18.25 19.9899 18.25C22.4199 18.25 24.3799 20.12 24.3799 22.41C24.3799 24.7 22.3999 26.5699 19.9899 26.5699ZM55.4698 18.15H36.5898C35.9898 18.15 35.5099 18.67 35.5099 19.29C35.5099 19.91 35.9898 20.4301 36.5898 20.4301H55.4698C56.0698 20.4301 56.5399 19.91 56.5399 19.29C56.5399 18.67 56.0798 18.15 55.4698 18.15ZM55.3799 23.71H44.2999C43.6699 23.71 43.1499 24.22 43.1499 24.85C43.1499 25.48 43.6699 25.99 44.2999 25.99H55.3899C56.0299 25.99 56.5399 25.48 56.5399 24.85C56.5399 24.22 56.0299 23.71 55.3799 23.71ZM45.5798 50.23C45.5798 47.47 43.3599 45.23 40.6199 45.23C37.8799 45.23 35.6599 47.47 35.6599 50.23C35.6599 51.65 36.2598 52.92 37.1998 53.83C34.5598 55.12 32.7299 57.84 32.7299 61C32.7299 61.6 33.2198 62.1 33.8298 62.1H61.0099C61.6099 62.1 62.0999 61.6 62.0999 61C62.0999 57.84 60.2699 55.12 57.6299 53.83C58.5799 52.92 59.1699 51.65 59.1699 50.23C59.1699 47.47 56.9498 45.23 54.2098 45.23C51.4698 45.23 49.2499 47.47 49.2499 50.23C49.2499 51.65 49.8499 52.92 50.7899 53.83C49.3799 54.52 48.2099 55.61 47.4199 56.97C46.6299 55.62 45.4499 54.52 44.0399 53.83C44.9799 52.92 45.5798 51.64 45.5798 50.23ZM51.4398 50.23C51.4398 48.7 52.6898 47.4399 54.2098 47.4399C55.7398 47.4399 56.9799 48.7 56.9799 50.23C56.9799 51.77 55.7398 53.03 54.2098 53.03C52.6898 53.03 51.4398 51.77 51.4398 50.23ZM54.2098 55.24C56.9798 55.24 59.2999 57.23 59.8099 59.89H48.6099C49.1299 57.23 51.4398 55.24 54.2098 55.24ZM40.6199 55.24C43.3899 55.24 45.7098 57.23 46.2098 59.89H35.0199C35.5299 57.23 37.8499 55.24 40.6199 55.24ZM37.8398 50.23C37.8398 48.7 39.0899 47.4399 40.6099 47.4399C42.1399 47.4399 43.3799 48.7 43.3799 50.23C43.3799 51.77 42.1399 53.03 40.6099 53.03C39.0899 53.03 37.8398 51.77 37.8398 50.23Z" fill="#FF9428"/>
<path d="M19.2699 32.21C16.3699 32.4 14.0898 34.93 14.0898 38V46.42C14.0898 47.02 13.5999 47.52 12.9899 47.52C12.3899 47.52 11.8999 47.02 11.8999 46.42V38C11.8999 33.78 15.0699 30.29 19.1199 30.03M19.2699 32.21L33.8599 33.39M19.2699 32.21C20.5399 32.12 21.7798 32.48 22.8198 33.23C22.8398 33.24 22.8699 33.26 22.8899 33.27C22.9099 33.28 22.9198 33.29 22.9398 33.3V33.3101L27.3699 36.23C30.1299 38.05 33.7599 37.34 35.6399 34.63L38.1998 30.96C38.3498 30.74 38.6299 30.69 38.8499 30.83C39.0599 30.97 39.1299 31.25 38.9999 31.47M19.2699 32.21L38.9999 31.47M19.1199 30.03C20.8699 29.92 22.5399 30.39 23.9799 31.38C23.9999 31.39 24.0199 31.4 24.0299 31.4L24.0399 31.41C24.0499 31.42 24.0499 31.42 24.0499 31.42H24.0599L28.5798 34.4C30.3398 35.56 32.6599 35.11 33.8599 33.39M19.1199 30.03L19.1299 30.13M33.8599 33.39L36.4099 29.71C37.2499 28.52 38.8499 28.21 40.0599 29.01C41.2699 29.8 41.6199 31.38 40.8799 32.61L38.2799 36.88M33.8599 33.39L38.2799 36.88M38.9999 31.47L36.3999 35.75C34.4399 38.99 30.3798 40.17 26.9598 38.49L26.7299 38.38C26.3899 38.22 25.9899 38.2399 25.6699 38.4399C25.3499 38.6299 25.1599 38.98 25.1599 39.37V46.42C25.1599 47.02 25.6499 47.52 26.2499 47.52C26.8499 47.52 27.3499 47.02 27.3499 46.42V41.01C31.4599 42.31 35.9699 40.69 38.2799 36.88M38.9999 31.47L38.2799 36.88M19.1299 30.13C15.1299 30.38 11.9999 33.83 11.9999 38V46.42C11.9999 46.97 12.4499 47.42 12.9899 47.42C13.5399 47.42 13.9899 46.97 13.9899 46.42V38C13.9899 34.88 16.3099 32.3 19.2599 32.11L19.1299 30.13ZM60.9999 11.9H30.3599C29.7499 11.9 29.2599 12.4 29.2599 13.02V29.8101C29.2599 30.4301 29.7499 30.9301 30.3599 30.9301C30.9599 30.9301 31.4598 30.4301 31.4598 29.8101V14.13H59.9099V34.17H43.6499C43.0499 34.17 42.5599 34.68 42.5599 35.29C42.5599 35.9 43.0499 36.41 43.6499 36.41H60.9999C61.6099 36.41 62.0999 35.9 62.0999 35.29V13.02C62.0999 12.4 61.6099 11.9 60.9999 11.9ZM19.9899 16.0699C16.2999 16.0699 13.2899 18.91 13.2899 22.42C13.2899 25.92 16.2999 28.77 19.9899 28.77C23.6699 28.77 26.6799 25.92 26.6799 22.42C26.6799 18.91 23.6699 16.0699 19.9899 16.0699ZM19.9899 26.5699C17.5599 26.5699 15.5898 24.69 15.5898 22.41C15.5898 20.12 17.5599 18.25 19.9899 18.25C22.4199 18.25 24.3799 20.12 24.3799 22.41C24.3799 24.7 22.3999 26.5699 19.9899 26.5699ZM55.4698 18.15H36.5898C35.9898 18.15 35.5099 18.67 35.5099 19.29C35.5099 19.91 35.9898 20.4301 36.5898 20.4301H55.4698C56.0698 20.4301 56.5399 19.91 56.5399 19.29C56.5399 18.67 56.0798 18.15 55.4698 18.15ZM55.3799 23.71H44.2999C43.6699 23.71 43.1499 24.22 43.1499 24.85C43.1499 25.48 43.6699 25.99 44.2999 25.99H55.3899C56.0299 25.99 56.5399 25.48 56.5399 24.85C56.5399 24.22 56.0299 23.71 55.3799 23.71ZM45.5798 50.23C45.5798 47.47 43.3599 45.23 40.6199 45.23C37.8799 45.23 35.6599 47.47 35.6599 50.23C35.6599 51.65 36.2598 52.92 37.1998 53.83C34.5598 55.12 32.7299 57.84 32.7299 61C32.7299 61.6 33.2198 62.1 33.8298 62.1H61.0099C61.6099 62.1 62.0999 61.6 62.0999 61C62.0999 57.84 60.2699 55.12 57.6299 53.83C58.5799 52.92 59.1699 51.65 59.1699 50.23C59.1699 47.47 56.9498 45.23 54.2098 45.23C51.4698 45.23 49.2499 47.47 49.2499 50.23C49.2499 51.65 49.8499 52.92 50.7899 53.83C49.3799 54.52 48.2099 55.61 47.4199 56.97C46.6299 55.62 45.4499 54.52 44.0399 53.83C44.9799 52.92 45.5798 51.64 45.5798 50.23ZM51.4398 50.23C51.4398 48.7 52.6898 47.4399 54.2098 47.4399C55.7398 47.4399 56.9799 48.7 56.9799 50.23C56.9799 51.77 55.7398 53.03 54.2098 53.03C52.6898 53.03 51.4398 51.77 51.4398 50.23ZM54.2098 55.24C56.9798 55.24 59.2999 57.23 59.8099 59.89H48.6099C49.1299 57.23 51.4398 55.24 54.2098 55.24ZM40.6199 55.24C43.3899 55.24 45.7098 57.23 46.2098 59.89H35.0199C35.5299 57.23 37.8499 55.24 40.6199 55.24ZM37.8398 50.23C37.8398 48.7 39.0899 47.4399 40.6099 47.4399C42.1399 47.4399 43.3799 48.7 43.3799 50.23C43.3799 51.77 42.1399 53.03 40.6099 53.03C39.0899 53.03 37.8398 51.77 37.8398 50.23Z" stroke="#FF8810" stroke-width="0.2"/>
</svg>
