<svg width="28" height="28" viewBox="0 0 28 28" fill="none" xmlns="http://www.w3.org/2000/svg">
<path d="M14 0C10.2 0 9.71998 0.0200781 8.22998 0.0800781C6.73998 0.150078 5.71996 0.38998 4.82996 0.72998C3.89996 1.08998 3.04998 1.6401 2.34998 2.3501C1.63998 3.0501 1.08998 3.90008 0.72998 4.83008C0.38998 5.72008 0.149956 6.73997 0.0799561 8.21997C0.0199561 9.71997 0 10.2 0 14C0 17.8 0.0199561 18.28 0.0799561 19.77C0.149956 21.26 0.38998 22.2799 0.72998 23.1699C1.08998 24.0899 1.56998 24.8699 2.34998 25.6499C3.12998 26.4299 3.90996 26.91 4.82996 27.26C5.71996 27.61 6.73998 27.8499 8.22998 27.9199C9.71998 27.9799 10.2 28 14 28C17.8 28 18.28 27.9799 19.77 27.9199C21.26 27.8499 22.28 27.61 23.17 27.26C24.11 26.91 24.95 26.3599 25.65 25.6499C26.43 24.8699 26.91 24.0899 27.26 23.1699C27.61 22.2799 27.85 21.26 27.92 19.77C27.98 18.28 28 17.8 28 14C28 10.2 27.98 9.71998 27.92 8.22998C27.85 6.73998 27.61 5.72008 27.26 4.83008C26.91 3.90008 26.36 3.0501 25.65 2.3501C24.95 1.6401 24.1 1.08998 23.17 0.72998C22.28 0.38998 21.26 0.150078 19.77 0.0800781C18.28 0.0200781 17.8 0 14 0ZM12.75 2.52002H14C17.74 2.52002 18.18 2.5401 19.66 2.6001C21.02 2.6701 21.76 2.89009 22.26 3.09009C22.91 3.34009 23.38 3.63988 23.87 4.12988C24.36 4.61988 24.66 5.08999 24.91 5.73999C25.11 6.23999 25.33 6.98009 25.4 8.34009C25.46 9.82009 25.48 10.26 25.48 14C25.48 17.73 25.46 18.1799 25.4 19.6499C25.33 21.0199 25.11 21.76 24.91 22.25C24.69 22.86 24.33 23.4101 23.87 23.8601C23.38 24.3501 22.91 24.6499 22.26 24.9099C21.77 25.0999 21.02 25.3299 19.66 25.3899C18.18 25.4599 17.74 25.47 14 25.47C10.26 25.47 9.81997 25.4599 8.33997 25.3899C6.97997 25.3299 6.24 25.0999 5.75 24.9099C5.14 24.6799 4.59001 24.3201 4.14001 23.8601C3.67001 23.4101 3.30997 22.86 3.08997 22.25C2.88997 21.76 2.66998 21.0199 2.59998 19.6499C2.53998 18.1799 2.52002 17.73 2.52002 13.99C2.52002 10.26 2.53998 9.81009 2.59998 8.34009C2.66998 6.97009 2.88997 6.22999 3.08997 5.73999C3.33997 5.08999 3.65001 4.61988 4.14001 4.12988C4.63001 3.63988 5.09 3.34008 5.75 3.08008C6.24 2.89008 6.97997 2.6601 8.33997 2.6001C9.63997 2.5401 10.14 2.52002 12.75 2.52002ZM21.47 4.8501C21.25 4.8501 21.04 4.88998 20.83 4.97998C20.63 5.05998 20.44 5.18009 20.29 5.34009C20.13 5.50009 20.01 5.67988 19.92 5.87988C19.84 6.08988 19.79 6.31003 19.79 6.53003C19.79 6.75003 19.84 6.96992 19.92 7.16992C20.01 7.36992 20.13 7.55997 20.29 7.71997C20.44 7.86997 20.63 8.00008 20.83 8.08008C21.04 8.16008 21.25 8.20996 21.47 8.20996C21.92 8.20996 22.35 8.02997 22.66 7.71997C22.98 7.39997 23.15 6.97003 23.15 6.53003C23.15 6.08003 22.98 5.65009 22.66 5.34009C22.35 5.02009 21.92 4.8501 21.47 4.8501ZM14 6.81006C13.05 6.80006 12.1 6.97008 11.22 7.33008C10.33 7.68008 9.51997 8.20988 8.83997 8.87988C8.16997 9.54988 7.63001 10.34 7.26001 11.22C6.89001 12.1 6.69995 13.05 6.69995 14C6.69995 14.95 6.89001 15.9 7.26001 16.78C7.63001 17.66 8.16997 18.4599 8.83997 19.1299C9.51997 19.7899 10.33 20.3199 11.22 20.6799C12.1 21.0299 13.05 21.2099 14 21.1899C15.89 21.1599 17.69 20.39 19.01 19.05C20.34 17.7 21.08 15.89 21.08 14C21.08 12.11 20.34 10.3 19.01 8.95996C17.69 7.60996 15.89 6.84006 14 6.81006ZM14 9.33008C15.24 9.33008 16.43 9.81995 17.3 10.7C18.18 11.58 18.67 12.76 18.67 14C18.67 15.24 18.18 16.42 17.3 17.3C16.43 18.18 15.24 18.6699 14 18.6699C12.76 18.6699 11.58 18.18 10.7 17.3C9.82995 16.42 9.32996 15.24 9.32996 14C9.32996 12.76 9.82995 11.58 10.7 10.7C11.58 9.81995 12.76 9.33008 14 9.33008Z" fill="#F2EEF7"/>
</svg>
