<svg width="74" height="74" viewBox="0 0 74 74" fill="none" xmlns="http://www.w3.org/2000/svg">
<path d="M64 0H10C4.47715 0 0 4.47715 0 10V64C0 69.5229 4.47715 74 10 74H64C69.5229 74 74 69.5229 74 64V10C74 4.47715 69.5229 0 64 0Z" fill="#C3E5F6"/>
<mask id="mask0_29_5" style="mask-type:luminance" maskUnits="userSpaceOnUse" x="7" y="10" width="60" height="51">
<path d="M46.037 20.13C46.812 20.13 47.447 19.55 47.447 18.84V11.29C47.447 10.58 46.812 10 46.037 10H37C36.225 10 35.591 10.58 35.591 11.29V22.96L25.313 29.04C24.919 29.27 24.665 29.68 24.665 30.12V36.4H12.752C11.977 36.4 11.343 36.9799 11.343 37.6899V58.4301H8.40997C7.63397 58.4301 7 59.01 7 59.71C7 60.42 7.63397 61 8.40997 61H65.59C66.366 61 67 60.42 67 59.71C67 59.01 66.366 58.4301 65.59 58.4301H62.644V37.6899C62.644 36.9799 62.01 36.4 61.235 36.4H49.322V30.12C49.322 29.68 49.083 29.27 48.674 29.04L38.41 22.96V20.13H46.037ZM44.627 17.5601H38.41V12.5699H44.627V17.5601ZM14.176 38.98H24.679V58.4301H14.176V38.98ZM34.18 58.4301V52.09H39.819V58.4301H34.18ZM59.824 38.98V58.4301H49.321V38.98H59.824ZM46.502 58.4301H42.639V50.8101C42.639 50.1001 42.004 49.52 41.229 49.52H32.77C31.995 49.52 31.361 50.1001 31.361 50.8101V58.4301H27.498V30.83L37 25.2L46.502 30.83V58.4301Z" fill="#0094FF"/>
<path d="M42.455 36.41C42.455 39.43 40.012 41.88 37 41.88C33.988 41.88 31.545 39.43 31.545 36.41C31.545 33.39 33.988 30.95 37 30.95C40.012 30.95 42.455 33.39 42.455 36.41Z" fill="#0094FF"/>
</mask>
<g mask="url(#mask0_29_5)">
<path d="M35.591 22.96L37.117 25.54L38.591 24.67V22.96H35.591ZM25.313 29.04L26.832 31.63L26.84 31.62L25.313 29.04ZM24.665 36.4V39.4H27.665V36.4H24.665ZM11.343 58.4301V61.4301L14.343 61.42V58.4301H11.343ZM62.644 58.4301H59.644V61.4301H62.644V58.4301ZM49.322 36.4H46.322V39.4H49.322V36.4ZM48.674 29.04L47.145 31.62L47.17 31.63L47.195 31.65L48.674 29.04ZM38.41 22.96H35.41V24.67L36.882 25.54L38.41 22.96ZM38.41 20.13V17.13H35.41V20.13H38.41ZM44.627 17.5601V20.5601H47.627V17.5601H44.627ZM38.41 17.5601H35.41V20.5601H38.41V17.5601ZM38.41 12.5699V9.56995H35.41V12.5699H38.41ZM44.627 12.5699H47.627V9.56995H44.627V12.5699ZM14.176 38.98V35.98H11.176V38.98H14.176ZM24.679 38.98H27.679V35.98H24.679V38.98ZM24.679 58.4301V61.4301H27.679V58.4301H24.679ZM14.176 58.4301H11.176V61.4301H14.176V58.4301ZM34.18 58.4301H31.18V61.4301H34.18V58.4301ZM34.18 52.09V49.09H31.18V52.09H34.18ZM39.819 52.09H42.819V49.09H39.819V52.09ZM39.819 58.4301V61.4301H42.819V58.4301H39.819ZM59.824 38.98H62.824V35.98H59.824V38.98ZM59.824 58.4301V61.4301H62.824V58.4301H59.824ZM49.321 58.4301H46.321V61.4301H49.321V58.4301ZM49.321 38.98V35.98H46.321V38.98H49.321ZM46.502 58.4301V61.4301H49.502V58.4301H46.502ZM42.639 58.4301H39.639V61.4301H42.639V58.4301ZM31.361 58.4301V61.4301H34.361V58.4301H31.361ZM27.498 58.4301H24.498V61.4301H27.498V58.4301ZM27.498 30.83L25.97 28.25L24.498 29.12V30.83H27.498ZM37 25.2L38.528 22.62L37 21.72L35.471 22.62L37 25.2ZM46.502 30.83H49.502V29.12L48.03 28.25L46.502 30.83ZM46.037 23.13C48.207 23.13 50.447 21.46 50.447 18.84H44.447C44.447 17.64 45.418 17.13 46.037 17.13V23.13ZM50.447 18.84V11.29H44.447V18.84H50.447ZM50.447 11.29C50.447 8.67004 48.207 7 46.037 7V13C45.418 13 44.447 12.49 44.447 11.29H50.447ZM46.037 7H37V13H46.037V7ZM37 7C34.831 7 32.591 8.67004 32.591 11.29H38.591C38.591 12.49 37.619 13 37 13V7ZM32.591 11.29V22.96H38.591V11.29H32.591ZM34.064 20.38L23.787 26.46L26.84 31.62L37.117 25.54L34.064 20.38ZM23.795 26.45C22.577 27.17 21.665 28.51 21.665 30.12H27.665C27.665 30.85 27.26 31.37 26.832 31.63L23.795 26.45ZM21.665 30.12V36.4H27.665V30.12H21.665ZM24.665 33.4H12.752V39.4H24.665V33.4ZM12.752 33.4C10.583 33.4 8.34302 35.0699 8.34302 37.6899H14.343C14.343 38.8899 13.371 39.4 12.752 39.4V33.4ZM8.34302 37.6899V58.4301H14.343V37.6899H8.34302ZM11.342 55.4301H8.409L8.40997 61.4301H11.343L11.342 55.4301ZM8.409 55.4301C6.239 55.4301 4 57.1 4 59.71H10C10 60.91 9.02897 61.4301 8.40997 61.4301L8.409 55.4301ZM4 59.71C4 62.33 6.23997 64 8.40997 64V58C9.02897 58 10 58.51 10 59.71H4ZM8.40997 64H65.59V58H8.40997V64ZM65.59 64C67.76 64 70 62.33 70 59.71H64C64 58.51 64.971 58 65.59 58V64ZM70 59.71C70 57.1 67.76 55.4301 65.59 55.4301V61.4301C64.971 61.4301 64 60.91 64 59.71H70ZM65.59 55.4301H62.644V61.4301H65.59V55.4301ZM65.644 58.4301V37.6899H59.644V58.4301H65.644ZM65.644 37.6899C65.644 35.0699 63.404 33.4 61.235 33.4V39.4C60.616 39.4 59.644 38.8899 59.644 37.6899H65.644ZM61.235 33.4H49.322V39.4H61.235V33.4ZM52.322 36.4V30.12H46.322V36.4H52.322ZM52.322 30.12C52.322 28.56 51.466 27.1701 50.152 26.4301L47.195 31.65C46.699 31.37 46.322 30.8 46.322 30.12H52.322ZM50.202 26.46L39.938 20.38L36.882 25.54L47.145 31.62L50.202 26.46ZM41.41 22.96V20.13H35.41V22.96H41.41ZM38.41 23.13H46.037V17.13H38.41V23.13ZM44.627 14.5601H38.41V20.5601H44.627V14.5601ZM41.41 17.5601V12.5699H35.41V17.5601H41.41ZM38.41 15.5699H44.627V9.56995H38.41V15.5699ZM41.627 12.5699V17.5601H47.627V12.5699H41.627ZM14.176 41.98H24.679V35.98H14.176V41.98ZM21.679 38.98V58.4301H27.679V38.98H21.679ZM24.679 55.4301H14.176V61.4301H24.679V55.4301ZM17.176 58.4301V38.98H11.176V58.4301H17.176ZM37.18 58.4301V52.09H31.18V58.4301H37.18ZM34.18 55.09H39.819V49.09H34.18V55.09ZM36.819 52.09V58.4301H42.819V52.09H36.819ZM39.819 55.4301H34.18V61.4301H39.819V55.4301ZM56.824 38.98V58.4301H62.824V38.98H56.824ZM59.824 55.4301H49.321V61.4301H59.824V55.4301ZM52.321 58.4301V38.98H46.321V58.4301H52.321ZM49.321 41.98H59.824V35.98H49.321V41.98ZM46.502 55.4301H42.639V61.4301H46.502V55.4301ZM45.639 58.4301V50.8101H39.639V58.4301H45.639ZM45.639 50.8101C45.639 48.1901 43.399 46.52 41.229 46.52V52.52C40.61 52.52 39.639 52.0101 39.639 50.8101H45.639ZM41.229 46.52H32.77V52.52H41.229V46.52ZM32.77 46.52C30.601 46.52 28.361 48.1901 28.361 50.8101H34.361C34.361 52.0101 33.389 52.52 32.77 52.52V46.52ZM28.361 50.8101V58.4301H34.361V50.8101H28.361ZM31.361 55.4301H27.498V61.4301H31.361V55.4301ZM30.498 58.4301V30.83H24.498V58.4301H30.498ZM29.026 33.41L38.528 27.78L35.471 22.62L25.97 28.25L29.026 33.41ZM35.471 27.78L44.973 33.41L48.03 28.25L38.528 22.62L35.471 27.78ZM43.502 30.83V58.4301H49.502V30.83H43.502ZM39.455 36.41C39.455 37.78 38.351 38.88 37 38.88V44.88C41.674 44.88 45.455 41.08 45.455 36.41H39.455ZM37 38.88C35.649 38.88 34.545 37.78 34.545 36.41H28.545C28.545 41.08 32.326 44.88 37 44.88V38.88ZM34.545 36.41C34.545 35.04 35.649 33.95 37 33.95V27.95C32.326 27.95 28.545 31.74 28.545 36.41H34.545ZM37 33.95C38.351 33.95 39.455 35.04 39.455 36.41H45.455C45.455 31.74 41.674 27.95 37 27.95V33.95Z" fill="#0094FF"/>
</g>
</svg>
